<?xml version="1.0" encoding="UTF-8"?>
<svg id="Layer_1" data-name="Layer 1" xmlns="http://www.w3.org/2000/svg" xmlns:xlink="http://www.w3.org/1999/xlink" viewBox="0 0 1000 358.97">
  <defs>
    <style>
      .cls-1 {
        fill: url(#linear-gradient);
      }

      .cls-1, .cls-2, .cls-3, .cls-4 {
        stroke-width: 0px;
      }

      .cls-2 {
        fill: #132d46;
      }

      .cls-3 {
        fill: #6a6e79;
      }

      .cls-4 {
        fill: #01c38e;
      }
    </style>
    <linearGradient id="linear-gradient" x1="40.02" y1="177.43" x2="561.26" y2="177.43" gradientUnits="userSpaceOnUse">
      <stop offset=".16" stop-color="#15fcb5"/>
      <stop offset=".91" stop-color="#01c38e"/>
    </linearGradient>
  </defs>
  <path class="cls-2" d="M558.36,222.76l-42.73-91.06c-5.56-11.86-17.47-19.43-30.57-19.44-70.69-.05-295.81-.32-365.91-1.56-13.01-.23-24.98,7.04-30.8,18.68l-45.07,90.14c-11.24,22.48,5.11,48.92,30.24,48.92h45.94s-.63,35.58,15.25,70.14c0,0,18.17-62.52,42.57-67.09,18.8-3.52,240.38-1.62,350.18-.56,24.9.24,41.48-25.62,30.9-48.16ZM244.93,194.39c-10.03.2-19.09-8.29-19.54-18.32-.47-10.55,8.69-19.85,19.4-19.7,10.44.14,18.68,8.49,18.62,18.86-.05,10.43-8.27,18.95-18.49,19.15ZM356.19,194.29c-10.19-.31-18.63-9.14-18.43-19.27.21-10.27,8.72-18.63,19.04-18.7,10.68-.07,19.61,9.3,19.09,20.01-.49,10.23-9.32,18.28-19.7,17.96Z"/>
  <path class="cls-4" d="M289.63,89.42c6.67,0,13.65,0,22.44,0,1.96-21.03,33.21-38.41,6.07-62.36-20.29-17.91-53.06,3.2-44.67,28.74,3.57,10.87,9.9,20.83,16.16,33.63Z"/>
  <g>
    <g>
      <path class="cls-3" d="M832.86,105.42v64.4h-84.98v21.47h84.98v21.46h-106.22v-64.4h84.98v-21.46h-84.98v-21.47h106.22Z"/>
      <path class="cls-3" d="M875.34,126.89v21.46h84.98v64.4h-106.22v-21.46h84.98v-21.47h-84.98v-64.4h106.22v21.47h-84.98Z"/>
    </g>
    <g>
      <path class="cls-3" d="M602.43,105.57h35.78v36.45h36.45v35.55h-36.89v36.22h-35.33s-.45-108.22,0-108.22Z"/>
      <rect class="cls-3" x="674.65" y="105.12" width="36.45" height="36.45"/>
      <rect class="cls-3" x="674.65" y="177.35" width="36.45" height="36.45"/>
    </g>
  </g>
  <path class="cls-1" d="M510.06,259.61c-.61,0-288.57-1.49-376.81-1.94h-42.31c-19.16,0-36.5-9.54-45.26-24.91-7.7-13.5-7.55-29.56.39-42.98l41.61-70.31c9.01-15.23,26.72-24.49,45.67-24.23,64.65.97,274.73,1.18,337.57,1.22,19.36.01,36.76,9.71,45.42,25.3l39.46,71.03c7.43,13.37,7.24,29.21-.5,42.36-8.88,15.09-26.22,24.46-45.26,24.46ZM132.51,134.63c-5.5,0-9.51,2.53-10.92,4.91l-41.61,70.31c-.66,1.12-.87,2-.07,3.4,1.43,2.5,5.39,5.03,11.04,5.03h42.42c.1,0,372.06,1.92,376.74,1.94,5.74,0,9.8-2.54,11.27-5.05.79-1.35.63-2.15.01-3.26l-39.46-71.03c-1.34-2.42-5.37-5.03-11.02-5.04-62.91-.04-273.22-.25-338.13-1.22-.09,0-.18,0-.27,0Z"/>
  <g>
    <path class="cls-3" d="M619.4,268.66c.26,0,.49.1.69.3l1.88,2.04c-1.04,1.29-2.32,2.27-3.84,2.96-1.52.69-3.34,1.03-5.47,1.03-1.9,0-3.62-.33-5.13-.98-1.52-.65-2.82-1.55-3.89-2.71-1.07-1.16-1.9-2.54-2.47-4.15-.57-1.61-.86-3.36-.86-5.27s.31-3.69.92-5.29c.62-1.6,1.48-2.98,2.6-4.14,1.12-1.16,2.45-2.06,4-2.7,1.55-.64,3.26-.97,5.14-.97s3.52.31,4.97.92c1.45.61,2.68,1.42,3.7,2.41l-1.59,2.22c-.1.14-.22.27-.37.37-.15.11-.35.16-.61.16-.18,0-.36-.05-.55-.15-.19-.1-.4-.22-.62-.37-.22-.15-.48-.31-.78-.49s-.64-.34-1.03-.49c-.39-.15-.84-.27-1.36-.37-.51-.1-1.11-.15-1.78-.15-1.15,0-2.19.2-3.15.61-.95.41-1.77,1-2.45,1.77-.68.77-1.22,1.72-1.6,2.84-.38,1.12-.57,2.39-.57,3.82s.2,2.73.61,3.85c.41,1.12.96,2.07,1.66,2.84.7.77,1.52,1.35,2.46,1.76.95.41,1.96.61,3.05.61.65,0,1.24-.03,1.76-.11.53-.07,1.01-.18,1.45-.33.44-.15.86-.35,1.26-.59s.79-.54,1.18-.9c.12-.11.24-.19.37-.26.13-.07.27-.1.41-.1Z"/>
    <path class="cls-3" d="M646.85,249.08v25.63h-4.79v-11.2h-12.04v11.2h-4.79v-25.63h4.79v11.02h12.04v-11.02h4.79Z"/>
    <path class="cls-3" d="M674.52,274.71h-3.69c-.42,0-.75-.1-1.01-.31-.26-.2-.45-.46-.58-.77l-1.92-5.23h-10.62l-1.92,5.23c-.09.27-.28.52-.55.74-.27.23-.61.34-1.01.34h-3.72l10.09-25.63h4.86l10.07,25.63ZM666.1,265.03l-3.12-8.52c-.15-.38-.31-.83-.48-1.35-.17-.52-.33-1.08-.5-1.68-.15.6-.31,1.17-.48,1.69-.17.52-.33.98-.48,1.37l-3.1,8.49h8.15Z"/>
    <path class="cls-3" d="M692.59,252.99h-7.73v21.72h-4.77v-21.72h-7.73v-3.92h20.23v3.92Z"/>
    <path class="cls-3" d="M712.92,249.31c1.61,0,3.01.18,4.19.56,1.19.37,2.17.9,2.95,1.58.78.69,1.36,1.52,1.75,2.48.38.97.58,2.05.58,3.25s-.21,2.26-.62,3.24c-.42.98-1.02,1.83-1.82,2.54-.8.71-1.78,1.26-2.96,1.66-1.18.4-2.53.59-4.07.59h-4.07v9.5h-3.42v-25.4h7.5ZM712.92,262.47c.98,0,1.85-.13,2.6-.39.75-.26,1.38-.62,1.9-1.09.51-.47.9-1.03,1.16-1.68.26-.65.39-1.37.39-2.14,0-1.62-.5-2.89-1.5-3.79-1-.91-2.51-1.37-4.55-1.37h-4.07v10.46h4.07Z"/>
    <path class="cls-3" d="M741.12,271.82v2.89h-14.41v-25.4h3.42v22.51h10.99Z"/>
    <path class="cls-3" d="M765.57,274.71h-2.66c-.31,0-.55-.08-.74-.23-.19-.15-.33-.35-.43-.58l-2.37-6.13h-11.4l-2.38,6.13c-.07.21-.2.4-.41.57-.2.17-.45.25-.74.25h-2.66l10.16-25.4h3.47l10.16,25.4ZM758.41,265.28l-3.99-10.34c-.12-.31-.24-.67-.37-1.07-.13-.41-.25-.84-.37-1.3-.25.95-.5,1.75-.77,2.39l-3.99,10.32h9.48Z"/>
    <path class="cls-3" d="M783.59,252.2h-8.22v22.51h-3.42v-22.51h-8.24v-2.89h19.89v2.89Z"/>
    <path class="cls-3" d="M790.79,252.11v8.88h10.44v2.8h-10.44v10.92h-3.44v-25.4h15.65v2.8h-12.21Z"/>
    <path class="cls-3" d="M830.64,262.02c0,1.9-.3,3.65-.9,5.24-.6,1.59-1.45,2.96-2.55,4.1-1.1,1.15-2.42,2.03-3.96,2.67-1.54.63-3.25.95-5.12.95s-3.57-.32-5.1-.95c-1.53-.63-2.85-1.52-3.95-2.67-1.1-1.15-1.95-2.51-2.55-4.1-.6-1.59-.9-3.34-.9-5.24s.3-3.65.9-5.24c.6-1.59,1.45-2.96,2.55-4.11,1.1-1.15,2.42-2.05,3.95-2.69,1.54-.64,3.24-.96,5.1-.96s3.57.32,5.12.96c1.54.64,2.86,1.53,3.96,2.69,1.1,1.15,1.95,2.52,2.55,4.11.6,1.59.9,3.34.9,5.24ZM827.11,262.02c0-1.56-.21-2.96-.64-4.2-.42-1.24-1.03-2.29-1.81-3.15-.78-.86-1.72-1.52-2.84-1.98s-2.35-.69-3.72-.69-2.59.23-3.7.69c-1.11.46-2.06,1.12-2.84,1.98-.79.85-1.39,1.9-1.82,3.15-.42,1.24-.63,2.64-.63,4.2s.21,2.95.63,4.19c.43,1.24,1.03,2.28,1.82,3.14.78.86,1.73,1.51,2.84,1.97,1.11.45,2.35.68,3.7.68s2.61-.23,3.72-.68c1.11-.46,2.06-1.11,2.84-1.97.78-.86,1.38-1.9,1.81-3.14.43-1.23.64-2.63.64-4.19Z"/>
    <path class="cls-3" d="M854.32,274.71h-3.05c-.63,0-1.09-.24-1.38-.73l-6.59-9.07c-.2-.28-.42-.49-.65-.61-.23-.12-.59-.19-1.07-.19h-2.6v10.6h-3.42v-25.4h7.18c1.6,0,2.99.16,4.16.48,1.17.33,2.14.8,2.9,1.41.76.62,1.33,1.35,1.69,2.22.37.87.55,1.84.55,2.92,0,.9-.14,1.74-.43,2.52-.28.78-.69,1.48-1.23,2.1-.54.62-1.19,1.15-1.97,1.59-.77.44-1.65.77-2.63.99.44.25.82.61,1.13,1.08l7.41,10.09ZM842.59,261.61c.99,0,1.87-.12,2.63-.37s1.4-.58,1.92-1.03c.51-.44.9-.97,1.16-1.58.26-.62.39-1.3.39-2.04,0-1.52-.5-2.65-1.49-3.42-.99-.77-2.48-1.15-4.47-1.15h-3.76v9.59h3.62Z"/>
    <path class="cls-3" d="M884.19,249.31v25.4h-3.02v-18.66c0-.25.01-.52.03-.8.02-.28.04-.57.06-.87l-8.72,15.88c-.27.53-.68.8-1.24.8h-.5c-.56,0-.97-.27-1.24-.8l-8.9-15.95c.07.63.11,1.21.11,1.74v18.66h-3.02v-25.4h2.54c.31,0,.54.03.71.09.17.06.32.22.48.5l8.77,15.63c.14.28.28.58.42.88.13.31.27.62.38.94.12-.32.24-.63.37-.95.13-.31.27-.61.43-.9l8.61-15.61c.14-.27.3-.44.47-.5.17-.06.41-.09.72-.09h2.54Z"/>
  </g>
</svg>