<?xml version="1.0" encoding="UTF-8"?>
<svg id="Layer_1" data-name="Layer 1" xmlns="http://www.w3.org/2000/svg" xmlns:xlink="http://www.w3.org/1999/xlink" viewBox="0 0 918.94 95.28">
  <defs>
    <style>
      .cls-1 {
        fill: url(#linear-gradient);
        stroke-width: 0px;
      }
    </style>
    <linearGradient id="linear-gradient" x1="918.94" y1="47.64" x2="0" y2="47.64" gradientUnits="userSpaceOnUse">
      <stop offset=".16" stop-color="#15fcb5"/>
      <stop offset=".91" stop-color="#01c38e"/>
    </linearGradient>
  </defs>
  <path class="cls-1" d="M131.03,2.66l-28.45,91.62h-15.4l-20.02-62.6c-.55-1.52-1.06-3.38-1.52-5.58-.25,1.06-.51,2.05-.76,2.98-.25.93-.53,1.8-.82,2.6l-20.21,62.6h-15.46L0,2.66h14.26c1.48,0,2.71.35,3.71,1.05s1.66,1.64,2,2.82l15.59,54.81c.34,1.35.67,2.82.98,4.4.32,1.58.64,3.24.98,4.97.34-1.77.71-3.44,1.11-5.01.4-1.56.83-3.02,1.3-4.37L57.91,6.52c.34-.97,1-1.86,2-2.66.99-.8,2.21-1.2,3.64-1.2h5.01c1.48,0,2.68.36,3.61,1.08.93.72,1.63,1.65,2.09,2.79l17.93,54.81c.89,2.62,1.69,5.64,2.41,9.06.55-3.34,1.16-6.36,1.84-9.06l15.59-54.81c.25-1.06.9-1.96,1.93-2.72,1.03-.76,2.27-1.14,3.71-1.14h13.37ZM143.8,63.73c.25,3.32.84,6.19,1.77,8.61.92,2.42,2.14,4.42,3.66,5.99,1.51,1.58,3.31,2.75,5.39,3.53,2.08.78,4.38,1.17,6.91,1.17s4.7-.29,6.53-.88c1.83-.59,3.43-1.24,4.79-1.96,1.37-.71,2.57-1.37,3.6-1.96,1.03-.59,2.03-.88,3-.88,1.3,0,2.27.48,2.9,1.45l4.48,5.68c-1.72,2.02-3.66,3.71-5.8,5.08-2.14,1.37-4.38,2.46-6.72,3.28-2.33.82-4.71,1.4-7.13,1.73-2.42.34-4.76.51-7.03.51-4.5,0-8.68-.75-12.55-2.24-3.87-1.49-7.23-3.7-10.09-6.62-2.86-2.92-5.11-6.54-6.75-10.85-1.64-4.31-2.46-9.3-2.46-14.98,0-4.42.71-8.57,2.14-12.46,1.43-3.89,3.48-7.28,6.15-10.16,2.67-2.88,5.93-5.16,9.78-6.85,3.85-1.68,8.19-2.52,13.03-2.52,4.08,0,7.84.65,11.29,1.96,3.45,1.3,6.41,3.21,8.9,5.71,2.48,2.5,4.43,5.57,5.83,9.21,1.41,3.64,2.11,7.79,2.11,12.46,0,2.36-.25,3.94-.76,4.76-.5.82-1.47,1.23-2.9,1.23h-40.06ZM173.52,54.44c0-2.02-.28-3.92-.85-5.71-.57-1.79-1.42-3.35-2.56-4.7-1.14-1.35-2.58-2.41-4.32-3.19-1.75-.78-3.77-1.17-6.09-1.17-4.5,0-8.04,1.28-10.63,3.85-2.59,2.57-4.24,6.2-4.95,10.91h29.4ZM214.95,0v94.27h-15.93V0h15.93ZM246.82,0v94.27h-15.93V0h15.93ZM308.27,42.77c-.46.59-.92,1.05-1.36,1.39-.44.34-1.08.51-1.92.51s-1.58-.24-2.33-.73c-.76-.48-1.66-1.03-2.71-1.64-1.05-.61-2.3-1.16-3.75-1.64-1.45-.48-3.25-.73-5.39-.73-2.73,0-5.13.49-7.19,1.48-2.06.99-3.77,2.41-5.14,4.26-1.37,1.85-2.39,4.09-3.06,6.72s-1.01,5.6-1.01,8.93.37,6.52,1.1,9.21c.74,2.69,1.8,4.95,3.19,6.78,1.39,1.83,3.07,3.22,5.05,4.16,1.98.95,4.21,1.42,6.69,1.42s4.49-.3,6.02-.91c1.54-.61,2.83-1.28,3.88-2.02,1.05-.74,1.97-1.41,2.75-2.02.78-.61,1.65-.91,2.62-.91,1.26,0,2.21.48,2.84,1.45l4.48,5.68c-1.73,2.02-3.6,3.71-5.61,5.08-2.02,1.37-4.11,2.46-6.28,3.28-2.17.82-4.4,1.4-6.69,1.73-2.29.34-4.57.51-6.85.51-3.99,0-7.76-.75-11.29-2.24-3.53-1.49-6.62-3.67-9.27-6.53-2.65-2.86-4.74-6.36-6.28-10.5-1.54-4.14-2.3-8.86-2.3-14.16,0-4.75.68-9.16,2.05-13.22,1.37-4.06,3.38-7.57,6.02-10.54,2.65-2.97,5.93-5.29,9.84-6.97,3.91-1.68,8.41-2.52,13.5-2.52s9.07.78,12.71,2.33c3.64,1.56,6.91,3.79,9.81,6.69l-4.1,5.68ZM350.22,28.07c4.8,0,9.16.78,13.09,2.33,3.93,1.56,7.3,3.76,10.09,6.62,2.8,2.86,4.95,6.35,6.47,10.47,1.51,4.12,2.27,8.73,2.27,13.82s-.76,9.76-2.27,13.88c-1.51,4.12-3.67,7.63-6.47,10.54-2.8,2.9-6.16,5.13-10.09,6.69-3.93,1.56-8.3,2.33-13.09,2.33s-9.23-.78-13.18-2.33c-3.95-1.56-7.33-3.78-10.13-6.69-2.8-2.9-4.96-6.41-6.5-10.54-1.54-4.12-2.3-8.75-2.3-13.88s.77-9.69,2.3-13.82c1.53-4.12,3.7-7.61,6.5-10.47,2.8-2.86,6.17-5.07,10.13-6.62,3.95-1.56,8.35-2.33,13.18-2.33ZM350.22,82.76c5.38,0,9.37-1.81,11.96-5.43,2.59-3.62,3.88-8.92,3.88-15.9s-1.29-12.3-3.88-15.96c-2.59-3.66-6.57-5.49-11.96-5.49s-9.52,1.84-12.14,5.52c-2.63,3.68-3.94,8.99-3.94,15.93s1.31,12.23,3.94,15.87c2.63,3.64,6.68,5.46,12.14,5.46ZM394.2,94.27V29.21h9.46c2.01,0,3.32.95,3.95,2.85l1,4.82c1.13-1.27,2.31-2.43,3.54-3.49,1.23-1.06,2.55-1.97,3.95-2.73,1.4-.76,2.9-1.36,4.51-1.81,1.61-.44,3.37-.67,5.29-.67,4.05,0,7.38,1.11,9.99,3.33,2.61,2.22,4.56,5.17,5.86,8.85,1-2.16,2.26-4.01,3.76-5.55,1.5-1.54,3.15-2.8,4.95-3.77,1.8-.97,3.71-1.69,5.73-2.16,2.03-.46,4.06-.7,6.11-.7,3.55,0,6.7.55,9.46,1.65,2.76,1.1,5.08,2.71,6.96,4.82,1.88,2.11,3.31,4.69,4.29,7.74.98,3.04,1.47,6.53,1.47,10.46v41.41h-14.61v-41.2c0-4.12-.93-7.22-2.78-9.31-1.85-2.08-4.57-3.12-8.15-3.12-1.64,0-3.16.27-4.56.82-1.4.55-2.63,1.34-3.69,2.37-1.06,1.03-1.89,2.32-2.49,3.88-.6,1.56-.91,3.34-.91,5.36v41.2h-15.93v-41.2c0-4.33-.89-7.49-2.68-9.46-1.78-1.98-4.4-2.96-7.84-2.96-2.32,0-4.48.56-6.48,1.67-2,1.12-3.86,2.64-5.58,4.57v47.38h-14.61ZM511.72,63.73c.25,3.32.84,6.19,1.77,8.61.92,2.42,2.14,4.42,3.66,5.99,1.51,1.58,3.31,2.75,5.39,3.53,2.08.78,4.38,1.17,6.91,1.17s4.7-.29,6.53-.88c1.83-.59,3.43-1.24,4.79-1.96,1.37-.71,2.57-1.37,3.6-1.96,1.03-.59,2.03-.88,3-.88,1.3,0,2.27.48,2.9,1.45l4.48,5.68c-1.72,2.02-3.66,3.71-5.8,5.08-2.14,1.37-4.38,2.46-6.72,3.28-2.33.82-4.71,1.4-7.13,1.73-2.42.34-4.76.51-7.03.51-4.5,0-8.68-.75-12.55-2.24-3.87-1.49-7.23-3.7-10.09-6.62-2.86-2.92-5.11-6.54-6.75-10.85-1.64-4.31-2.46-9.3-2.46-14.98,0-4.42.71-8.57,2.14-12.46,1.43-3.89,3.48-7.28,6.15-10.16,2.67-2.88,5.93-5.16,9.78-6.85,3.85-1.68,8.19-2.52,13.03-2.52,4.08,0,7.84.65,11.29,1.96,3.45,1.3,6.41,3.21,8.9,5.71,2.48,2.5,4.43,5.57,5.83,9.21,1.41,3.64,2.11,7.79,2.11,12.46,0,2.36-.25,3.94-.76,4.76-.5.82-1.47,1.23-2.9,1.23h-40.06ZM541.43,54.44c0-2.02-.28-3.92-.85-5.71-.57-1.79-1.42-3.35-2.56-4.7-1.14-1.35-2.58-2.41-4.32-3.19-1.75-.78-3.77-1.17-6.09-1.17-4.5,0-8.04,1.28-10.63,3.85-2.59,2.57-4.24,6.2-4.95,10.91h29.4ZM631.56,2.66c6,0,11.13.57,15.4,1.71,4.27,1.14,7.76,2.77,10.49,4.88,2.72,2.11,4.72,4.67,5.99,7.67,1.27,3,1.9,6.38,1.9,10.14,0,2.15-.32,4.21-.95,6.18-.63,1.96-1.62,3.8-2.95,5.51-1.33,1.71-3.02,3.26-5.07,4.66-2.05,1.39-4.49,2.58-7.32,3.55,12.59,2.83,18.88,9.63,18.88,20.4,0,3.89-.74,7.48-2.22,10.77-1.48,3.29-3.63,6.14-6.46,8.52-2.83,2.39-6.32,4.26-10.45,5.61-4.14,1.35-8.87,2.03-14.19,2.03h-34.59V2.66h31.55ZM617.27,15.93v26.56h13.6c5.84,0,10.26-1.06,13.25-3.18,2.98-2.12,4.48-5.48,4.48-10.1s-1.36-8.2-4.07-10.23c-2.71-2.03-6.95-3.05-12.71-3.05h-14.55ZM634.3,80.99c3.13,0,5.76-.38,7.89-1.13,2.13-.75,3.83-1.75,5.1-3.01,1.27-1.25,2.19-2.71,2.76-4.38.56-1.67.84-3.44.84-5.32s-.31-3.73-.94-5.29c-.63-1.57-1.61-2.9-2.94-4.01-1.34-1.11-3.06-1.95-5.17-2.54-2.11-.58-4.65-.88-7.61-.88h-16.97v26.56h17.03ZM679.89,38.57c7.15-6.81,15.76-10.22,25.82-10.22,3.64,0,6.89.62,9.76,1.86,2.87,1.24,5.29,2.96,7.27,5.17,1.98,2.21,3.48,4.85,4.51,7.92,1.03,3.07,1.55,6.43,1.55,10.09v40.88h-6.79c-1.42,0-2.51-.22-3.27-.66-.77-.44-1.37-1.33-1.82-2.68l-1.33-4.67c-1.58,1.47-3.11,2.77-4.61,3.88-1.49,1.12-3.05,2.05-4.67,2.81-1.62.76-3.34,1.33-5.18,1.73-1.84.4-3.87.6-6.09.6-2.63,0-5.05-.37-7.27-1.1-2.22-.74-4.14-1.84-5.76-3.31-1.62-1.47-2.87-3.3-3.76-5.49-.89-2.19-1.33-4.73-1.33-7.63,0-1.64.26-3.27.79-4.89.53-1.62,1.38-3.16,2.58-4.64,1.19-1.47,2.74-2.86,4.64-4.16,1.9-1.3,4.23-2.44,7-3.41,2.77-.97,5.99-1.76,9.67-2.37,3.68-.61,7.88-.98,12.61-1.1v-3.78c0-4.33-.89-7.54-2.67-9.62-1.78-2.08-4.34-3.12-7.7-3.12-2.42,0-4.43.29-6.03.88-1.6.59-3,1.25-4.21,1.99-1.21.74-2.31,1.4-3.3,1.99-.99.59-2.09.88-3.3.88-1.05,0-1.94-.28-2.67-.85s-1.31-1.23-1.76-1.99l-2.67-4.98ZM714.2,66.17c-4.5.21-8.29.6-11.36,1.17-3.07.57-5.53,1.29-7.38,2.18-1.85.88-3.18,1.91-3.97,3.09-.8,1.18-1.2,2.46-1.2,3.85,0,2.73.81,4.69,2.43,5.87,1.62,1.18,3.73,1.77,6.34,1.77,3.19,0,5.96-.58,8.3-1.73,2.33-1.16,4.61-2.91,6.85-5.27v-10.91ZM790.25,42.77c-.46.59-.92,1.05-1.36,1.39-.44.34-1.08.51-1.92.51s-1.58-.24-2.33-.73c-.76-.48-1.66-1.03-2.71-1.64-1.05-.61-2.3-1.16-3.75-1.64-1.45-.48-3.25-.73-5.39-.73-2.73,0-5.13.49-7.19,1.48-2.06.99-3.77,2.41-5.14,4.26-1.37,1.85-2.39,4.09-3.06,6.72-.67,2.63-1.01,5.6-1.01,8.93s.37,6.52,1.1,9.21c.74,2.69,1.8,4.95,3.19,6.78,1.39,1.83,3.07,3.22,5.05,4.16,1.98.95,4.21,1.42,6.69,1.42s4.49-.3,6.02-.91c1.54-.61,2.83-1.28,3.88-2.02,1.05-.74,1.97-1.41,2.75-2.02.78-.61,1.65-.91,2.62-.91,1.26,0,2.21.48,2.84,1.45l4.48,5.68c-1.73,2.02-3.6,3.71-5.61,5.08-2.02,1.37-4.11,2.46-6.28,3.28-2.17.82-4.4,1.4-6.69,1.73-2.29.34-4.57.51-6.85.51-3.99,0-7.76-.75-11.29-2.24-3.53-1.49-6.62-3.67-9.27-6.53-2.65-2.86-4.74-6.36-6.28-10.5-1.54-4.14-2.3-8.86-2.3-14.16,0-4.75.68-9.16,2.05-13.22,1.37-4.06,3.38-7.57,6.02-10.54,2.65-2.97,5.93-5.29,9.84-6.97,3.91-1.68,8.41-2.52,13.5-2.52s9.07.78,12.71,2.33c3.64,1.56,6.91,3.79,9.81,6.69l-4.1,5.68ZM820.42,0v54.44h2.97c1.07,0,1.92-.14,2.55-.42.62-.28,1.26-.85,1.9-1.71l16.45-20.32c.69-.9,1.45-1.59,2.29-2.06.84-.47,1.92-.71,3.26-.71h13.28l-19.82,23.67c-1.41,1.86-2.94,3.29-4.6,4.29.87.62,1.65,1.35,2.33,2.17.68.83,1.34,1.72,1.96,2.67l21.24,30.93h-14.17c-1.2,0-2.24-.2-3.11-.59-.87-.39-1.6-1.11-2.18-2.14l-16.28-24.18c-.58-.95-1.18-1.57-1.8-1.86-.62-.29-1.55-.43-2.8-.43h-3.48v30.54h-15.93V0h15.93ZM869.86,85.23c0-1.3.24-2.54.73-3.72.48-1.18,1.14-2.19,1.99-3.03.84-.84,1.85-1.51,3.03-2.02,1.18-.51,2.44-.76,3.78-.76s2.6.25,3.75.76c1.16.5,2.17,1.18,3.03,2.02.86.84,1.55,1.85,2.05,3.03.5,1.18.76,2.42.76,3.72s-.25,2.6-.76,3.75c-.5,1.16-1.19,2.16-2.05,3-.86.84-1.87,1.5-3.03,1.99-1.16.48-2.41.73-3.75.73s-2.61-.24-3.78-.73c-1.18-.48-2.19-1.14-3.03-1.99-.84-.84-1.5-1.84-1.99-3-.48-1.16-.73-2.41-.73-3.75ZM899.83,85.23c0-1.3.24-2.54.73-3.72.48-1.18,1.14-2.19,1.99-3.03.84-.84,1.85-1.51,3.03-2.02,1.18-.51,2.44-.76,3.78-.76s2.6.25,3.75.76c1.16.5,2.17,1.18,3.03,2.02.86.84,1.55,1.85,2.05,3.03.5,1.18.76,2.42.76,3.72s-.25,2.6-.76,3.75c-.5,1.16-1.19,2.16-2.05,3-.86.84-1.87,1.5-3.03,1.99-1.16.48-2.41.73-3.75.73s-2.61-.24-3.78-.73c-1.18-.48-2.19-1.14-3.03-1.99-.84-.84-1.5-1.84-1.99-3-.48-1.16-.73-2.41-.73-3.75Z"/>
</svg>